# Blender 5.1.2
# www.blender.org
o mesh
v 0.048220 0.117170 0.096591
v 0.100749 -0.038207 0.096591
v 0.034082 -0.038207 0.462239
v -0.000000 0.117170 0.096591
v -0.000000 -0.038207 0.068499
v -0.000000 -0.038207 0.462239
v 0.100749 0.016159 0.096591
v -0.000000 0.016159 0.462239
v 0.034082 0.016159 0.462239
v 0.100749 -0.038207 -0.101982
v 0.048220 0.117170 -0.101982
v -0.000000 0.117170 -0.101982
v -0.000000 -0.038207 -0.101982
v 0.100749 0.016159 -0.101982
v 0.346382 -0.038207 -0.003409
v 0.346382 -0.023845 -0.003409
v 0.346382 -0.038207 -0.201982
v 0.346382 -0.023845 -0.201982
v 0.346382 -0.055642 0.129560
v 0.346382 0.029342 0.129560
v 0.430738 -0.055642 0.129560
v 0.430738 0.029342 0.129560
v -0.000000 -0.038207 0.157477
v 0.048220 0.117170 0.157477
v -0.000000 0.117170 0.157477
v 0.100749 -0.038207 0.157477
v 0.100749 0.016159 0.157477
v 0.074876 -0.038207 -0.218757
v -0.000000 -0.038207 -0.218757
v 0.074876 0.081372 -0.218757
v -0.000000 0.081372 -0.218757
v 0.346382 -0.055642 -0.352756
v 0.346382 0.029342 -0.352756
v 0.430738 -0.055642 -0.352756
v 0.430738 0.029342 -0.352756
v -0.000000 0.068050 -0.236070
v -0.000000 0.049098 -0.102136
v -0.000000 -0.006120 -0.102136
v -0.000000 -0.025073 -0.236070
v 0.061333 0.068050 -0.236070
v 0.061333 -0.025073 -0.236070
v -0.000000 0.049098 -0.102136
v -0.000000 -0.006120 -0.102136
v 0.359881 -0.042042 -0.370713
v 0.359881 0.015742 -0.370713
v 0.417238 -0.042042 -0.370713
v 0.417238 0.015742 -0.370713
v 0.371190 -0.030650 -0.144034
v 0.371190 0.004349 -0.144034
v 0.405930 -0.030650 -0.144034
v 0.405930 0.004349 -0.144034
v -0.048220 0.117170 0.096591
v -0.100749 -0.038207 0.096591
v -0.034082 -0.038207 0.462239
v -0.100749 0.016159 0.096591
v -0.034082 0.016159 0.462239
v -0.100749 -0.038207 -0.101982
v -0.048220 0.117170 -0.101982
v -0.100749 0.016159 -0.101982
v -0.346382 -0.038207 -0.003409
v -0.346382 -0.023845 -0.003409
v -0.346382 -0.038207 -0.201982
v -0.346382 -0.023845 -0.201982
v -0.346382 -0.055642 0.129560
v -0.346382 0.029342 0.129560
v -0.430738 -0.055642 0.129560
v -0.430738 0.029342 0.129560
v -0.048220 0.117170 0.157477
v -0.100749 -0.038207 0.157477
v -0.100749 0.016159 0.157477
v -0.074876 -0.038207 -0.218757
v -0.074876 0.081372 -0.218757
v -0.346382 -0.055642 -0.352756
v -0.346382 0.029342 -0.352756
v -0.430738 -0.055642 -0.352756
v -0.430738 0.029342 -0.352756
v -0.061333 0.068050 -0.236070
v -0.061333 -0.025073 -0.236070
v -0.359881 -0.042042 -0.370713
v -0.359881 0.015742 -0.370713
v -0.417238 -0.042042 -0.370713
v -0.417238 0.015742 -0.370713
v -0.371190 -0.030650 -0.144034
v -0.371190 0.004349 -0.144034
v -0.405930 -0.030650 -0.144034
v -0.405930 0.004349 -0.144034
vn 0.8710 0.4529 0.1905
vn 0.9763 -0.0000 -0.2163
vn -0.0000 0.9561 -0.2931
vn 0.8856 0.4605 0.0610
vn 0.9769 -0.0000 0.2137
vn -0.0000 -0.0000 1.0000
vn 0.8872 0.4614 -0.0000
vn -0.0000 1.0000 -0.0000
vn -0.0000 -1.0000 -0.0000
vn 0.3771 -0.0000 0.9262
vn -1.0000 -0.0000 -0.0000
vn -0.3771 -0.0000 -0.9262
vn 0.1607 0.9870 -0.0000
vn 1.0000 -0.0000 -0.0000
vn -0.0000 0.9492 0.3146
vn -0.0000 0.9901 0.1401
vn 0.9092 -0.0000 0.4164
vn -0.0000 0.7925 -0.6098
vn 0.7876 -0.0000 -0.6161
vn -0.0000 -0.7967 -0.6044
vn -0.0000 -0.7972 -0.6037
vn 0.7993 -0.0000 -0.6009
vn -0.7993 -0.0000 -0.6009
vn -0.0000 0.7972 -0.6037
vn -0.0000 0.9987 -0.0502
vn -0.9988 -0.0000 -0.0498
vn -0.0000 -0.9987 -0.0502
vn 0.9988 -0.0000 -0.0498
vn -0.8710 0.4529 0.1905
vn -0.9763 -0.0000 -0.2163
vn -0.8856 0.4605 0.0610
vn -0.9769 -0.0000 0.2137
vn -0.8872 0.4614 -0.0000
vn -0.3771 -0.0000 0.9262
vn 0.3771 -0.0000 -0.9262
vn -0.1607 0.9870 -0.0000
vn -0.9092 -0.0000 0.4164
vn -0.0000 -0.9901 0.1401
vn -0.7876 -0.0000 -0.6161
vt 0.296432 0.315504
vt 0.383468 0.318224
vt 0.298800 0.575885
vt 0.266920 0.744862
vt 0.170051 0.789512
vt 0.170051 0.688684
vt 0.192547 0.098113
vt 0.233241 0.000000
vt 0.233241 0.098113
vt 0.352338 0.000000
vt 0.383468 0.099747
vt 0.296432 0.097027
vt 0.455578 0.834389
vt 0.501029 0.574217
vt 0.501419 0.834608
vt 0.091763 0.904491
vt 0.045881 0.933170
vt 0.045881 0.904491
vt 0.296432 0.264235
vt 0.383468 0.266955
vt 0.192547 0.265679
vt 0.233241 0.265679
vt 0.383469 0.223817
vt 0.538674 0.063182
vt 0.538674 0.286999
vt 0.221038 0.990956
vt 0.233159 0.790703
vt 0.266920 0.990956
vt 0.410303 0.793377
vt 0.455189 0.573998
vt 0.455189 0.893143
vt 0.100917 0.802301
vt 0.113038 0.997138
vt 0.100917 0.997138
vt 0.693998 0.223636
vt 0.538674 0.062870
vt 0.693998 -0.000000
vt 0.000000 0.476136
vt 0.085025 0.332270
vt 0.085025 0.476136
vt 0.085025 0.257183
vt 0.056263 0.000000
vt 0.085025 0.000000
vt 0.021834 0.574680
vt 0.085025 0.574680
vt 0.000000 0.308564
vt 0.000000 0.257183
vt 0.410303 0.661982
vt 0.383468 0.573998
vt 0.383468 0.893144
vt 0.398183 0.793377
vt 0.398183 0.661982
vt 0.850436 0.828328
vt 0.922093 0.421993
vt 0.922093 0.828127
vt 0.779244 0.829059
vt 0.850435 0.422042
vt 0.850435 0.829059
vt 0.455189 0.957596
vt 0.526172 0.885876
vt 0.526172 0.957596
vt 0.921627 0.421993
vt 0.850436 0.014991
vt 0.921627 0.014991
vt 0.455189 0.885657
vt 0.501029 0.885876
vt 0.233241 0.317058
vt 0.204479 0.575437
vt 0.192547 0.317058
vt 0.538674 0.286507
vt 0.221811 0.688684
vt 0.170051 0.575437
vt 0.221811 0.575437
vt 0.928956 0.828328
vt 0.868267 0.944569
vt 0.850435 0.828328
vt 0.383468 0.575885
vt 0.289321 0.657315
vt 0.682051 0.688457
vt 0.696502 0.636697
vt 0.696502 0.699887
vt 0.519841 0.674914
vt 0.501419 0.585240
vt 0.519841 0.573998
vt 0.033264 0.589166
vt 0.790637 0.844084
vt 0.538673 0.645718
vt 0.519892 0.585475
vt 0.538673 0.573997
vt 0.394946 0.912097
vt 0.861828 -0.000000
vt 0.910234 -0.000000
vt 0.218456 0.790703
vt 0.179594 0.981850
vt 0.170051 0.790703
vt 0.779245 0.844084
vt 0.818395 1.000000
vt 0.788859 1.000000
vt 0.922093 0.613175
vt 0.960955 0.421993
vt 0.970498 0.613175
vt 0.970349 -0.000000
vt 0.930296 0.190236
vt 0.921627 -0.000000
vt 0.693998 0.166738
vt 0.693998 -0.000000
vt 0.779245 0.194254
vt 0.045881 0.589166
vt -0.000000 0.679987
vt 0.000000 0.589166
vt 0.273936 0.098113
vt 0.296432 0.000000
vt 0.749034 0.429243
vt 0.693998 0.338421
vt 0.779245 0.365937
vt -0.000000 0.698538
vt 0.045881 0.865276
vt 0.000000 0.865276
vt 0.091763 0.961848
vt 0.045881 0.961848
vt 0.693998 0.207026
vt 0.779245 0.234542
vt 0.273936 0.265679
vt 0.383468 0.350180
vt 0.538674 0.510816
vt 0.383468 0.573998
vt 0.113038 0.802301
vt 0.100917 0.589166
vt 0.146798 0.589166
vt 0.565485 0.700591
vt 0.610331 0.979639
vt 0.565485 0.867799
vt 0.045881 0.904491
vt 0.058002 0.698538
vt 0.091763 0.904491
vt 0.538674 0.510635
vt 0.693998 0.349869
vt 0.693998 0.573506
vt 0.170051 0.476136
vt 0.113788 0.000000
vt 0.170051 0.257183
vt 0.148216 0.574680
vt 0.170051 0.308564
vt 0.538674 0.979841
vt 0.553375 0.867833
vt 0.538674 0.573707
vt 0.553375 0.700625
vt 0.682051 0.892651
vt 0.610331 0.573506
vt 0.682051 0.573506
vt 0.779245 -0.000000
vt 0.850436 0.407017
vt 0.779245 0.407017
vt 0.708054 0.851236
vt 0.779037 0.922957
vt 0.708054 0.922957
vt 0.779244 0.444234
vt 0.708054 0.851236
vt 0.708054 0.444234
vt 0.045881 0.905564
vt 0.000000 0.905564
vt 0.262004 0.575437
vt 0.233241 0.575437
vt 0.273936 0.317058
vt 0.273572 0.575437
vt 0.289321 0.953193
vt 0.349558 0.890598
vt 0.349558 0.969188
vt 0.383468 0.700362
vt 0.336395 0.678839
vt 0.682051 0.584936
vt 0.696502 0.573506
vt 0.089674 0.698538
vt 0.011084 0.698538
vt 0.136786 0.589166
vt 0.839043 0.422042
vt 0.670574 0.911605
vt 0.610331 0.892652
vt 0.170051 0.660887
vt 0.151269 0.600643
vt 0.170050 0.589166
vt 0.767852 0.429243
vt 0.960955 0.804323
vt 0.922093 0.613175
vt 0.970498 0.613175
vt 0.327501 0.890598
vt 0.289321 0.700362
vt 0.338044 0.700362
vt 0.931170 0.190236
vt 0.970032 0.381418
vt 0.921627 0.381418
vt 0.968107 0.984244
vt 0.928956 0.828328
vt 0.977722 0.828328
vt 0.266920 0.790703
vt 0.170051 0.000000
vt 0.455189 0.573998
vt 0.091763 0.933170
vt 0.383469 0.000000
vt 0.221038 0.790703
vt 0.146798 0.802301
vt 0.538674 0.286507
vt 0.850436 0.422195
vt 0.779244 0.422042
vt 0.455189 0.885876
vt 0.850436 0.421993
vt 0.914826 0.944569
vt 0.682051 0.636697
vt 0.501419 0.663830
vt 0.085025 0.589166
vt 0.839043 0.844084
vt 0.519892 0.634241
vt 0.443712 0.912097
vt 0.208913 0.981850
vt 0.828010 0.844084
vt 0.931636 0.421993
vt 0.959806 0.190236
vt 0.100917 0.679987
vt 0.045881 0.698538
vt 0.538673 0.286999
vt 0.100917 0.802301
vt 0.610331 0.573506
vt 0.045881 0.698538
vt 0.850436 -0.000000
vt 0.779037 0.851236
vt 0.779244 0.851236
vt 0.289321 0.906593
vt 0.790637 0.422042
vt 0.621808 0.911605
vt 0.151269 0.649409
vt 0.719446 0.429243
vt 0.931636 0.804323
vt 0.297991 0.890598
vt 0.960489 0.190236
vt 0.938570 0.984244
s 0
f 27/1/1 24/2/1 9/3/1
f 14/4/2 28/5/2 30/6/2
f 11/7/3 31/8/3 12/9/3
f 30/10/4 11/11/4 14/12/4
f 27/13/5 3/14/5 26/15/5
f 9/16/6 6/17/6 3/18/6
f 7/19/7 11/11/7 1/20/7
f 1/21/8 12/9/8 4/22/8
f 15/23/9 10/24/9 17/25/9
f 2/26/10 16/27/10 7/28/10
f 18/29/11 20/30/11 33/31/11
f 10/32/12 18/33/12 17/34/12
f 14/35/13 16/36/13 18/37/13
f 10/38/9 5/39/9 13/40/9
f 23/41/9 3/42/9 6/43/9
f 28/44/9 13/40/9 29/45/9
f 23/41/9 2/46/9 26/47/9
f 16/48/11 19/49/11 20/30/11
f 18/29/11 32/50/11 17/51/11
f 17/51/11 19/49/11 15/52/11
f 21/53/14 35/54/14 22/55/14
f 34/56/9 19/57/9 32/58/9
f 21/59/6 20/60/6 19/61/6
f 20/62/8 35/63/8 33/64/8
f 7/65/14 26/15/14 2/66/14
f 1/20/7 27/1/7 7/19/7
f 25/67/15 9/68/15 24/69/15
f 4/22/8 24/69/8 1/21/8
f 37/70/8 43/70/8 42/70/8
f 37/71/16 40/72/16 36/73/16
f 40/74/17 43/75/17 41/76/17
f 38/77/8 41/78/8 43/77/8
f 40/79/18 31/80/18 30/81/18
f 28/82/19 40/83/19 30/84/19
f 29/45/20 41/85/20 28/44/20
f 32/58/21 46/86/21 34/56/21
f 34/87/22 47/88/22 35/89/22
f 33/31/23 44/90/23 32/50/23
f 33/64/24 47/91/24 45/92/24
f 44/93/25 50/94/25 46/95/25
f 47/96/26 50/97/26 51/98/26
f 47/99/27 49/100/27 45/101/27
f 45/102/28 48/103/28 44/104/28
f 70/105/29 56/106/29 68/107/29
f 59/108/30 71/109/30 57/110/30
f 58/111/3 31/8/3 72/112/3
f 72/113/31 59/114/31 58/115/31
f 54/116/32 70/117/32 69/118/32
f 6/17/6 56/119/6 54/120/6
f 58/115/33 55/121/33 52/122/33
f 12/9/8 52/123/8 4/22/8
f 57/124/9 60/125/9 62/126/9
f 61/127/34 53/128/34 55/129/34
f 63/130/14 65/131/14 61/132/14
f 57/133/35 63/134/35 59/135/35
f 59/136/36 61/137/36 55/138/36
f 5/39/9 57/139/9 13/40/9
f 23/41/9 54/140/9 69/141/9
f 71/142/9 13/40/9 57/139/9
f 53/143/9 23/41/9 69/141/9
f 61/132/14 64/144/14 60/145/14
f 73/146/14 63/130/14 62/147/14
f 64/144/14 62/147/14 60/145/14
f 76/148/11 66/149/11 67/150/11
f 64/151/9 75/152/9 73/153/9
f 65/154/6 66/155/6 64/156/6
f 76/157/8 65/158/8 74/159/8
f 69/118/11 55/160/11 53/161/11
f 70/105/33 52/122/33 55/121/33
f 25/67/15 56/162/15 8/163/15
f 68/164/8 4/22/8 52/123/8
f 37/71/8 77/165/8 42/71/8
f 43/166/37 77/167/37 78/168/37
f 38/77/38 78/169/38 39/170/38
f 31/80/18 77/171/18 72/172/18
f 71/109/39 77/173/39 78/174/39
f 78/175/20 29/45/20 71/142/20
f 81/176/21 73/153/21 75/152/21
f 82/177/23 75/178/23 76/148/23
f 73/179/22 80/180/22 74/181/22
f 74/159/24 82/182/24 76/157/24
f 85/183/25 79/184/25 81/185/25
f 86/186/28 81/187/28 82/188/28
f 84/189/27 82/190/27 80/191/27
f 83/192/26 80/193/26 79/194/26
f 14/4/2 10/195/2 28/5/2
f 11/7/3 30/196/3 31/8/3
f 27/13/5 9/197/5 3/14/5
f 9/16/6 8/198/6 6/17/6
f 7/19/7 14/12/7 11/11/7
f 1/21/8 11/7/8 12/9/8
f 15/23/9 2/199/9 10/24/9
f 2/26/10 15/200/10 16/27/10
f 18/29/11 16/48/11 20/30/11
f 10/32/12 14/201/12 18/33/12
f 14/35/13 7/202/13 16/36/13
f 10/38/9 2/46/9 5/39/9
f 23/41/9 26/47/9 3/42/9
f 28/44/9 10/38/9 13/40/9
f 23/41/9 5/39/9 2/46/9
f 16/48/11 15/52/11 19/49/11
f 18/29/11 33/31/11 32/50/11
f 17/51/11 32/50/11 19/49/11
f 21/53/14 34/203/14 35/54/14
f 34/56/9 21/204/9 19/57/9
f 21/59/6 22/205/6 20/60/6
f 20/62/8 22/206/8 35/63/8
f 7/65/14 27/13/14 26/15/14
f 1/20/7 24/2/7 27/1/7
f 25/67/15 8/163/15 9/68/15
f 4/22/8 25/67/8 24/69/8
f 37/70/8 38/70/8 43/70/8
f 37/71/8 42/71/8 40/72/8
f 40/74/17 42/207/17 43/75/17
f 38/77/38 39/170/38 41/78/38
f 40/79/18 36/208/18 31/80/18
f 28/82/19 41/209/19 40/83/19
f 29/45/20 39/210/20 41/85/20
f 32/58/21 44/211/21 46/86/21
f 34/87/22 46/212/22 47/88/22
f 33/31/23 45/213/23 44/90/23
f 33/64/24 35/63/24 47/91/24
f 44/93/25 48/214/25 50/94/25
f 47/96/26 46/215/26 50/97/26
f 47/99/27 51/216/27 49/100/27
f 45/102/28 49/217/28 48/103/28
f 59/108/30 72/218/30 71/109/30
f 58/111/3 12/9/3 31/8/3
f 54/116/32 56/219/32 70/117/32
f 6/17/6 8/198/6 56/119/6
f 58/115/33 59/114/33 55/121/33
f 12/9/8 58/111/8 52/123/8
f 57/124/9 53/220/9 60/125/9
f 61/127/34 60/221/34 53/128/34
f 63/130/14 74/222/14 65/131/14
f 57/133/35 62/223/35 63/134/35
f 59/136/36 63/25/36 61/137/36
f 5/39/9 53/143/9 57/139/9
f 23/41/9 6/43/9 54/140/9
f 71/142/9 29/45/9 13/40/9
f 53/143/9 5/39/9 23/41/9
f 61/132/14 65/131/14 64/144/14
f 73/146/14 74/222/14 63/130/14
f 64/144/14 73/146/14 62/147/14
f 76/148/11 75/178/11 66/149/11
f 64/151/9 66/224/9 75/152/9
f 65/154/6 67/225/6 66/155/6
f 76/157/8 67/226/8 65/158/8
f 69/118/11 70/117/11 55/160/11
f 70/105/33 68/107/33 52/122/33
f 25/67/15 68/164/15 56/162/15
f 68/164/8 25/67/8 4/22/8
f 37/71/16 36/73/16 77/165/16
f 43/166/37 42/227/37 77/167/37
f 38/77/8 43/77/8 78/169/8
f 31/80/18 36/208/18 77/171/18
f 71/109/39 72/218/39 77/173/39
f 78/175/20 39/210/20 29/45/20
f 81/176/21 79/228/21 73/153/21
f 82/177/23 81/229/23 75/178/23
f 73/179/22 79/230/22 80/180/22
f 74/159/24 80/231/24 82/182/24
f 85/183/25 83/232/25 79/184/25
f 86/186/28 85/233/28 81/187/28
f 84/189/27 86/234/27 82/190/27
f 83/192/26 84/235/26 80/193/26
